<svg width="106" height="105" fill="none" xmlns="http://www.w3.org/2000/svg">
  <path d="M19.384 85.811c-.106.903-.44 1.6-1.002 2.092-.559.489-1.303.733-2.233.733-1.008 0-1.816-.362-2.426-1.084-.605-.723-.908-1.69-.908-2.9v-.82c0-.794.14-1.491.422-2.093.285-.601.688-1.062 1.207-1.383.52-.324 1.121-.486 1.805-.486.906 0 1.633.254 2.18.762.546.504.865 1.203.955 2.097h-1.131c-.098-.68-.31-1.171-.639-1.476-.324-.305-.78-.457-1.365-.457-.719 0-1.283.265-1.693.797-.407.531-.61 1.287-.61 2.267v.826c0 .926.194 1.663.58 2.21.387.546.928.82 1.623.82.625 0 1.104-.14 1.436-.422.336-.285.558-.78.668-1.483h1.13zm5.87-.744H23.25v3.452h-1.131v-8.532h2.824c.96 0 1.7.22 2.215.657.52.437.78 1.074.78 1.91 0 .531-.145.994-.434 1.388-.286.395-.684.69-1.196.885l2.004 3.621v.07h-1.207l-1.852-3.45zm-2.004-.92h1.728c.559 0 1.002-.144 1.33-.433.332-.29.498-.676.498-1.16 0-.528-.158-.932-.474-1.213-.313-.281-.766-.424-1.36-.428H23.25v3.234zm14.032.381c0 .836-.141 1.567-.422 2.192-.282.62-.68 1.095-1.196 1.424-.515.328-1.117.492-1.804.492-.672 0-1.268-.164-1.787-.492-.52-.333-.924-.803-1.213-1.413-.285-.613-.432-1.322-.44-2.126v-.616c0-.82.143-1.545.428-2.174.285-.629.688-1.109 1.207-1.441.523-.336 1.121-.504 1.793-.504.684 0 1.285.166 1.805.498.523.328.925.807 1.207 1.436.281.625.422 1.353.422 2.185v.54zm-1.12-.55c0-1.012-.203-1.788-.609-2.327-.406-.543-.974-.814-1.705-.814-.71 0-1.271.271-1.682.814-.406.54-.615 1.29-.626 2.25v.627c0 .98.204 1.752.615 2.315.414.558.982.838 1.705.838.726 0 1.289-.264 1.687-.791.399-.532.604-1.291.616-2.28v-.632zm6.52.738c-.964-.277-1.667-.617-2.109-1.02a1.967 1.967 0 01-.656-1.5c0-.672.268-1.226.803-1.664.539-.441 1.238-.662 2.098-.662.586 0 1.107.113 1.564.34.461.227.816.539 1.066.938.254.398.381.833.381 1.306H44.7c0-.515-.165-.92-.493-1.213-.328-.297-.79-.445-1.388-.445-.555 0-.989.123-1.301.369-.309.242-.463.58-.463 1.014 0 .347.146.642.44.885.296.238.798.457 1.505.656.711.199 1.266.42 1.664.662.403.238.7.517.89.838.196.32.294.697.294 1.13 0 .692-.27 1.247-.809 1.665-.539.414-1.26.62-2.162.62a4.041 4.041 0 01-1.64-.333c-.508-.227-.9-.535-1.178-.926a2.264 2.264 0 01-.41-1.33h1.13c0 .515.19.924.569 1.224.383.297.892.446 1.53.446.593 0 1.048-.121 1.364-.363.317-.243.475-.573.475-.99 0-.419-.147-.74-.44-.968-.292-.23-.824-.456-1.593-.68zm8.326 0c-.965-.277-1.668-.617-2.11-1.02a1.967 1.967 0 01-.656-1.5c0-.672.268-1.226.803-1.664.539-.441 1.238-.662 2.098-.662.585 0 1.107.113 1.564.34.461.227.816.539 1.066.938.254.398.381.833.381 1.306h-1.13c0-.515-.165-.92-.493-1.213-.328-.297-.79-.445-1.388-.445-.555 0-.989.123-1.301.369-.309.242-.463.58-.463 1.014 0 .347.146.642.44.885.296.238.798.457 1.505.656.711.199 1.266.42 1.664.662.403.238.7.517.89.838.196.32.294.697.294 1.13 0 .692-.27 1.247-.809 1.665-.539.414-1.26.62-2.162.62a4.041 4.041 0 01-1.64-.333c-.508-.227-.9-.535-1.178-.926a2.264 2.264 0 01-.41-1.33h1.13c0 .515.19.924.569 1.224.383.297.893.446 1.53.446.593 0 1.048-.121 1.364-.363.317-.243.475-.573.475-.99 0-.419-.146-.74-.44-.968-.292-.23-.824-.456-1.593-.68zm11.706-3.803h-2.742v7.606h-1.12v-7.606h-2.736v-.926h6.598v.926zm8.864 3.615c0 .836-.14 1.567-.422 2.192-.281.62-.68 1.095-1.196 1.424-.515.328-1.117.492-1.804.492-.672 0-1.268-.164-1.787-.492-.52-.333-.924-.803-1.213-1.413-.285-.613-.432-1.322-.44-2.126v-.616c0-.82.143-1.545.428-2.174.285-.629.688-1.109 1.207-1.441.524-.336 1.121-.504 1.793-.504.684 0 1.285.166 1.805.498.523.328.926.807 1.207 1.436.281.625.422 1.353.422 2.185v.54zm-1.12-.55c0-1.012-.203-1.788-.609-2.327-.406-.543-.974-.814-1.705-.814-.71 0-1.271.271-1.681.814-.407.54-.616 1.29-.627 2.25v.627c0 .98.205 1.752.615 2.315.414.558.982.838 1.705.838.726 0 1.289-.264 1.687-.791.399-.532.604-1.291.616-2.28v-.632zm5.847 1.851l.164 1.125.24-1.014 1.688-5.953h.95l1.646 5.953.234 1.032.182-1.149 1.324-5.836h1.13l-2.068 8.532H80.77l-1.758-6.217-.135-.65-.134.65-1.823 6.217h-1.025l-2.063-8.532h1.125l1.348 5.842zm16.57 2.69h-1.132l-4.295-6.575v6.575h-1.13v-8.532h1.13l4.307 6.604v-6.604h1.12v8.532zM24.928 52V15.55h5.085v17.19l8.37-17.19h4.725l-7.2 16.065L44.278 52h-4.95l-6.975-17.1-2.34 4.23V52h-5.085zm33.755 0l-5.94-36.45h4.23l3.916 26.19 4.904-26.055h3.6l4.95 26.19 3.825-26.325h4.14L76.459 52h-3.69l-5.085-27-5.13 27h-3.87z" fill="#222629"/>
</svg>
