<?xml version="1.0" standalone="no"?>
<!DOCTYPE svg PUBLIC "-//W3C//DTD SVG 20010904//EN"
 "http://www.w3.org/TR/2001/REC-SVG-20010904/DTD/svg10.dtd">
<svg version="1.0" xmlns="http://www.w3.org/2000/svg"
 width="424.000000pt" height="424.000000pt" viewBox="0 0 424.000000 424.000000"
 preserveAspectRatio="xMidYMid meet">
<metadata>
Created by potrace 1.11, written by Peter Selinger 2001-2013
</metadata>
<g transform="translate(0.000000,424.000000) scale(0.100000,-0.100000)"
fill="#000000" stroke="none">
<path d="M999 3592 c-1 -9 -1 -1423 0 -1439 1 -10 28 -13 101 -13 l100 0 0
263 c0 146 4 267 9 272 5 6 24 37 42 70 17 33 35 63 38 67 5 6 208 -470 225
-527 2 -5 8 -21 13 -35 6 -14 19 -44 28 -67 l17 -43 99 0 c89 0 98 2 92 18
-11 30 -94 236 -108 267 -27 61 -203 491 -209 512 -7 22 9 65 95 251 22 46 39
85 39 87 0 2 15 37 34 77 40 86 106 237 106 243 0 3 -42 4 -92 2 l-93 -2 -23
-45 c-12 -25 -88 -178 -167 -340 l-144 -295 0 341 -1 341 -100 1 c-55 0 -100
-3 -101 -6z"/>
<path d="M2116 3556 c7 -45 11 -68 19 -106 2 -14 7 -43 10 -65 3 -23 7 -50 9
-60 2 -11 9 -56 16 -100 7 -44 13 -87 15 -96 6 -32 47 -275 50 -301 2 -15 9
-53 14 -85 6 -32 13 -76 16 -98 9 -62 15 -95 25 -155 11 -62 16 -97 25 -155 3
-22 11 -74 18 -115 l13 -75 79 0 79 0 28 150 c15 83 30 159 32 170 2 11 14 72
26 135 12 63 32 171 46 240 14 69 27 139 30 157 12 78 43 217 44 206 2 -7 3
-16 4 -20 1 -5 8 -42 15 -83 7 -41 16 -91 21 -110 5 -19 11 -51 14 -70 3 -19
8 -46 11 -60 3 -14 9 -50 15 -80 6 -30 12 -66 15 -80 4 -22 17 -89 31 -167 9
-46 54 -284 65 -340 l10 -53 73 0 73 0 12 68 c7 38 14 84 17 103 3 19 19 117
36 219 16 102 32 199 33 215 2 17 6 41 9 55 3 14 8 41 10 60 3 19 17 105 31
190 14 85 34 214 45 285 11 72 22 141 25 155 3 14 8 44 11 67 l5 41 -79 -1
c-44 -1 -82 -4 -85 -7 -3 -3 -7 -27 -11 -55 -8 -68 -26 -198 -31 -226 -5 -23
-10 -59 -21 -141 -5 -39 -18 -131 -29 -198 -2 -14 -7 -45 -10 -70 -3 -25 -10
-70 -15 -100 -10 -62 -15 -99 -26 -185 -7 -54 -8 -57 -15 -30 -5 16 -11 41
-13 55 -3 14 -7 34 -9 45 -2 11 -7 36 -10 55 -14 81 -17 96 -22 120 -3 14 -14
75 -25 135 -12 61 -27 142 -35 180 -15 76 -17 87 -40 215 -9 47 -21 112 -28
144 l-12 59 -50 0 c-99 -2 -90 5 -108 -80 -9 -43 -26 -127 -37 -188 -10 -60
-31 -171 -45 -245 -14 -74 -41 -218 -60 -319 -33 -178 -44 -218 -46 -173 -1
12 -2 25 -3 30 -1 4 -6 33 -10 66 -4 32 -9 68 -11 80 -10 53 -25 155 -30 196
-3 25 -10 70 -15 100 -5 30 -12 73 -15 95 -3 22 -10 67 -15 100 -5 33 -12 80
-15 105 -3 25 -12 86 -20 135 -8 50 -15 93 -15 97 0 3 -39 6 -86 6 l-85 -1 7
-41z"/>
<path d="M587 1010 c-48 -26 -70 -71 -73 -150 -4 -111 40 -179 117 -182 80 -3
108 13 134 75 15 37 15 37 -10 37 -18 0 -26 -7 -31 -25 -14 -55 -93 -74 -132
-32 -40 43 -45 165 -9 221 33 50 119 41 140 -14 14 -37 47 -41 47 -6 0 28 -50
86 -77 87 -10 1 -31 2 -46 3 -15 2 -42 -5 -60 -14z"/>
<path d="M1322 1020 c-70 -16 -104 -76 -104 -181 0 -101 60 -170 143 -163 51
4 83 24 109 67 28 45 24 184 -6 224 -33 45 -88 66 -142 53z m62 -40 c36 -13
58 -53 61 -111 5 -92 -22 -144 -80 -155 -61 -11 -105 50 -102 142 2 65 23 109
60 124 29 12 32 12 61 0z"/>
<path d="M1652 1010 c-50 -23 -68 -67 -45 -113 13 -26 29 -35 135 -80 40 -17
55 -46 39 -76 -24 -45 -112 -39 -139 10 -16 27 -45 38 -56 21 -3 -5 4 -23 15
-40 29 -49 89 -67 159 -50 48 12 73 44 72 90 -1 43 -35 74 -109 99 -71 23 -94
50 -74 87 23 44 111 35 133 -13 13 -29 48 -34 48 -7 0 66 -100 107 -178 72z"/>
<path d="M2003 1019 c-47 -13 -76 -56 -69 -99 7 -43 30 -63 99 -86 66 -21 89
-41 85 -73 -7 -59 -119 -66 -146 -8 -13 26 -52 39 -52 17 0 -45 52 -88 115
-95 89 -9 158 62 124 128 -17 32 -36 44 -105 67 -62 21 -85 45 -77 81 4 17 43
39 68 39 29 0 66 -24 71 -47 4 -16 13 -23 29 -23 22 0 23 3 14 32 -8 30 -14
37 -50 58 -26 15 -71 19 -106 9z"/>
<path d="M2683 1019 c-18 -5 -44 -25 -59 -45 -22 -28 -28 -48 -32 -107 -7
-115 37 -183 123 -191 89 -8 145 58 147 174 3 121 -79 198 -179 169z m85 -45
c34 -23 50 -63 49 -124 0 -92 -19 -123 -85 -135 -63 -11 -105 59 -97 159 9 93
73 142 133 100z"/>
<path d="M885 853 c0 -167 0 -168 23 -171 21 -3 22 0 22 67 l0 70 40 -1 c40 0
41 -1 76 -69 28 -58 38 -69 59 -69 14 0 25 2 25 5 0 2 -13 26 -29 53 -41 70
-45 88 -23 104 39 28 47 65 27 128 -11 34 -57 50 -142 50 l-78 0 0 -167z m132
128 c30 -1 53 -27 53 -59 -1 -46 -22 -63 -84 -67 l-56 -3 0 62 c0 35 2 65 5
67 2 3 17 4 32 3 15 -1 38 -3 50 -3z"/>
<path d="M2244 1003 c2 -14 13 -18 47 -18 24 0 49 -3 54 -7 6 -4 10 -65 9
-152 0 -146 0 -146 23 -146 22 0 22 1 25 153 l3 152 53 -1 c44 0 52 2 52 18 0
17 -11 18 -134 18 -122 0 -134 -2 -132 -17z"/>
<path d="M2994 850 c37 -153 43 -170 62 -170 17 0 25 14 48 93 15 50 33 110
40 131 l12 39 17 -64 c52 -187 57 -199 81 -199 12 0 23 6 23 13 0 6 17 78 37
159 20 81 36 152 36 158 0 6 -10 10 -22 8 -18 -2 -24 -13 -35 -63 -26 -126
-41 -186 -45 -191 -4 -4 -30 86 -61 214 -8 33 -15 42 -31 42 -18 0 -25 -13
-45 -87 -42 -159 -60 -203 -62 -153 -1 33 -4 48 -30 152 -19 78 -24 88 -43 88
l-23 0 41 -170z"/>
<path d="M3452 850 l0 -170 23 0 c24 0 24 1 23 120 -1 66 1 122 3 125 5 4 135
-188 153 -226 5 -11 19 -19 35 -19 l26 0 0 170 c0 170 0 170 -22 170 -23 0
-23 -2 -23 -131 l0 -131 -86 131 c-69 105 -91 131 -109 131 l-23 0 0 -170z"/>
</g>
</svg>
