<svg width="106" height="90" viewBox="0 0 106 90" fill="none" xmlns="http://www.w3.org/2000/svg">
<path d="M19.3836 70.8115C19.2781 71.7139 18.9441 72.4111 18.3816 72.9033C17.823 73.3916 17.0789 73.6357 16.1492 73.6357C15.1414 73.6357 14.3328 73.2744 13.7234 72.5518C13.118 71.8291 12.8152 70.8623 12.8152 69.6514V68.8311C12.8152 68.0381 12.9559 67.3408 13.2371 66.7393C13.5223 66.1377 13.9246 65.6768 14.4441 65.3564C14.9637 65.0322 15.5652 64.8701 16.2488 64.8701C17.1551 64.8701 17.8816 65.124 18.4285 65.6318C18.9754 66.1357 19.2938 66.835 19.3836 67.7295H18.2527C18.1551 67.0498 17.9422 66.5576 17.6141 66.2529C17.2898 65.9482 16.8348 65.7959 16.2488 65.7959C15.5301 65.7959 14.9656 66.0615 14.5555 66.5928C14.1492 67.124 13.9461 67.8799 13.9461 68.8604V69.6865C13.9461 70.6123 14.1395 71.3486 14.5262 71.8955C14.9129 72.4424 15.4539 72.7158 16.1492 72.7158C16.7742 72.7158 17.2527 72.5752 17.5848 72.2939C17.9207 72.0088 18.1434 71.5146 18.2527 70.8115H19.3836ZM25.2535 70.0674H23.2496V73.5186H22.1188V64.9873H24.943C25.9039 64.9873 26.6422 65.2061 27.1578 65.6436C27.6773 66.0811 27.9371 66.7178 27.9371 67.5537C27.9371 68.085 27.7926 68.5479 27.5035 68.9424C27.2184 69.3369 26.8199 69.6318 26.3082 69.8271L28.3121 73.4482V73.5186H27.1051L25.2535 70.0674ZM23.2496 69.1475H24.9781C25.5367 69.1475 25.9801 69.0029 26.3082 68.7139C26.6402 68.4248 26.8063 68.0381 26.8063 67.5537C26.8063 67.0264 26.648 66.6221 26.3316 66.3408C26.0191 66.0596 25.566 65.917 24.9723 65.9131H23.2496V69.1475ZM37.2816 69.5283C37.2816 70.3643 37.141 71.0947 36.8598 71.7197C36.5785 72.3408 36.1801 72.8154 35.6645 73.1436C35.1488 73.4717 34.5473 73.6357 33.8598 73.6357C33.1879 73.6357 32.5922 73.4717 32.0727 73.1436C31.5531 72.8115 31.1488 72.3408 30.8598 71.7314C30.5746 71.1182 30.4281 70.4092 30.4203 69.6045V68.9893C30.4203 68.1689 30.5629 67.4443 30.848 66.8154C31.1332 66.1865 31.5355 65.7061 32.0551 65.374C32.5785 65.0381 33.1762 64.8701 33.848 64.8701C34.5316 64.8701 35.1332 65.0361 35.6527 65.3682C36.1762 65.6963 36.5785 66.1748 36.8598 66.8037C37.141 67.4287 37.2816 68.1572 37.2816 68.9893V69.5283ZM36.1625 68.9775C36.1625 67.9658 35.9594 67.1904 35.5531 66.6514C35.1469 66.1084 34.5785 65.8369 33.848 65.8369C33.1371 65.8369 32.5766 66.1084 32.1664 66.6514C31.7602 67.1904 31.5512 67.9404 31.5395 68.9014V69.5283C31.5395 70.5088 31.7445 71.2803 32.1547 71.8428C32.5688 72.4014 33.1371 72.6807 33.8598 72.6807C34.5863 72.6807 35.1488 72.417 35.5473 71.8896C35.9457 71.3584 36.1508 70.5986 36.1625 69.6104V68.9775ZM42.6828 69.7158C41.718 69.4385 41.0148 69.0986 40.5734 68.6963C40.1359 68.29 39.9172 67.79 39.9172 67.1963C39.9172 66.5244 40.1848 65.9697 40.7199 65.5322C41.259 65.0908 41.9582 64.8701 42.8176 64.8701C43.4035 64.8701 43.925 64.9834 44.382 65.21C44.843 65.4365 45.1984 65.749 45.4484 66.1475C45.7023 66.5459 45.8293 66.9814 45.8293 67.4541H44.6984C44.6984 66.9385 44.5344 66.5342 44.2063 66.2412C43.8781 65.9443 43.4152 65.7959 42.8176 65.7959C42.2629 65.7959 41.8293 65.9189 41.5168 66.165C41.2082 66.4072 41.0539 66.7451 41.0539 67.1787C41.0539 67.5264 41.2004 67.8213 41.4934 68.0635C41.7902 68.3018 42.2922 68.5205 42.9992 68.7197C43.7102 68.9189 44.2648 69.1396 44.6633 69.3818C45.0656 69.6201 45.3625 69.8994 45.5539 70.2197C45.7492 70.54 45.8469 70.917 45.8469 71.3506C45.8469 72.042 45.5773 72.5967 45.0383 73.0146C44.4992 73.4287 43.7785 73.6357 42.8762 73.6357C42.2902 73.6357 41.7434 73.5244 41.2355 73.3018C40.7277 73.0752 40.3352 72.7666 40.0578 72.376C39.7844 71.9854 39.6477 71.542 39.6477 71.0459H40.7785C40.7785 71.5615 40.968 71.9697 41.3469 72.2705C41.7297 72.5674 42.2395 72.7158 42.8762 72.7158C43.4699 72.7158 43.925 72.5947 44.2414 72.3525C44.5578 72.1104 44.716 71.7803 44.716 71.3623C44.716 70.9443 44.5695 70.6221 44.2766 70.3955C43.9836 70.165 43.4523 69.9385 42.6828 69.7158ZM51.0078 69.7158C50.043 69.4385 49.3398 69.0986 48.8984 68.6963C48.4609 68.29 48.2422 67.79 48.2422 67.1963C48.2422 66.5244 48.5098 65.9697 49.0449 65.5322C49.584 65.0908 50.2832 64.8701 51.1426 64.8701C51.7285 64.8701 52.25 64.9834 52.707 65.21C53.168 65.4365 53.5234 65.749 53.7734 66.1475C54.0273 66.5459 54.1543 66.9814 54.1543 67.4541H53.0234C53.0234 66.9385 52.8594 66.5342 52.5312 66.2412C52.2031 65.9443 51.7402 65.7959 51.1426 65.7959C50.5879 65.7959 50.1543 65.9189 49.8418 66.165C49.5332 66.4072 49.3789 66.7451 49.3789 67.1787C49.3789 67.5264 49.5254 67.8213 49.8184 68.0635C50.1152 68.3018 50.6172 68.5205 51.3242 68.7197C52.0352 68.9189 52.5898 69.1396 52.9883 69.3818C53.3906 69.6201 53.6875 69.8994 53.8789 70.2197C54.0742 70.54 54.1719 70.917 54.1719 71.3506C54.1719 72.042 53.9023 72.5967 53.3633 73.0146C52.8242 73.4287 52.1035 73.6357 51.2012 73.6357C50.6152 73.6357 50.0684 73.5244 49.5605 73.3018C49.0527 73.0752 48.6602 72.7666 48.3828 72.376C48.1094 71.9854 47.9727 71.542 47.9727 71.0459H49.1035C49.1035 71.5615 49.293 71.9697 49.6719 72.2705C50.0547 72.5674 50.5645 72.7158 51.2012 72.7158C51.7949 72.7158 52.25 72.5947 52.5664 72.3525C52.8828 72.1104 53.041 71.7803 53.041 71.3623C53.041 70.9443 52.8945 70.6221 52.6016 70.3955C52.3086 70.165 51.7773 69.9385 51.0078 69.7158ZM62.7137 65.9131H59.9715V73.5186H58.8523V65.9131H56.116V64.9873H62.7137V65.9131ZM71.5777 69.5283C71.5777 70.3643 71.4371 71.0947 71.1559 71.7197C70.8746 72.3408 70.4762 72.8154 69.9605 73.1436C69.4449 73.4717 68.8434 73.6357 68.1559 73.6357C67.484 73.6357 66.8883 73.4717 66.3688 73.1436C65.8492 72.8115 65.4449 72.3408 65.1559 71.7314C64.8707 71.1182 64.7242 70.4092 64.7164 69.6045V68.9893C64.7164 68.1689 64.859 67.4443 65.1441 66.8154C65.4293 66.1865 65.8316 65.7061 66.3512 65.374C66.8746 65.0381 67.4723 64.8701 68.1441 64.8701C68.8277 64.8701 69.4293 65.0361 69.9488 65.3682C70.4723 65.6963 70.8746 66.1748 71.1559 66.8037C71.4371 67.4287 71.5777 68.1572 71.5777 68.9893V69.5283ZM70.4586 68.9775C70.4586 67.9658 70.2555 67.1904 69.8492 66.6514C69.443 66.1084 68.8746 65.8369 68.1441 65.8369C67.4332 65.8369 66.8727 66.1084 66.4625 66.6514C66.0563 67.1904 65.8473 67.9404 65.8355 68.9014V69.5283C65.8355 70.5088 66.0406 71.2803 66.4508 71.8428C66.8648 72.4014 67.4332 72.6807 68.1559 72.6807C68.8824 72.6807 69.4449 72.417 69.8434 71.8896C70.2418 71.3584 70.4469 70.5986 70.4586 69.6104V68.9775ZM76.3051 70.8291L76.4691 71.9541L76.7094 70.9404L78.3969 64.9873H79.3461L80.9926 70.9404L81.227 71.9717L81.4086 70.8232L82.7328 64.9873H83.8637L81.7953 73.5186H80.7699L79.0121 67.3018L78.8773 66.6514L78.7426 67.3018L76.9203 73.5186H75.8949L73.8324 64.9873H74.9574L76.3051 70.8291ZM92.8742 73.5186H91.7434L87.4484 66.9443V73.5186H86.3176V64.9873H87.4484L91.7551 71.5908V64.9873H92.8742V73.5186Z" fill="#222629"/>
<path d="M24.9283 52V15.55H30.0133V32.74L38.3833 15.55H43.1083L35.9083 31.615L44.2783 52H39.3283L32.3533 34.9L30.0133 39.13V52H24.9283ZM58.6835 52L52.7435 15.55H56.9735L60.8885 41.74L65.7935 15.685H69.3935L74.3435 41.875L78.1685 15.55H82.3085L76.4585 52H72.7685L67.6835 25L62.5535 52H58.6835Z" fill="#222629"/>
</svg>
